<?xml version="1.0" encoding="UTF-8" standalone="no"?>
<!DOCTYPE svg PUBLIC "-//W3C//DTD SVG 1.1//EN"
 "http://www.w3.org/Graphics/SVG/1.1/DTD/svg11.dtd">
<!-- Generated by graphviz version 2.43.0 (0)
 -->
<!-- Title: %3 Pages: 1 -->
<svg width="1448pt" height="1196pt"
 viewBox="0.00 0.00 1448.40 1196.00" xmlns="http://www.w3.org/2000/svg" xmlns:xlink="http://www.w3.org/1999/xlink">
<g id="graph0" class="graph" transform="scale(1 1) rotate(0) translate(4 1192)">
<title>%3</title>
<polygon fill="white" stroke="transparent" points="-4,4 -4,-1192 1444.4,-1192 1444.4,4 -4,4"/>
<!-- S -->
<g id="node1" class="node">
<title>S</title>
<ellipse fill="none" stroke="black" cx="1326" cy="-1170" rx="27" ry="18"/>
<text text-anchor="middle" x="1326" y="-1166.3" font-family="Times,serif" font-size="14.00">S</text>
</g>
<!-- C -->
<g id="node2" class="node">
<title>C</title>
<ellipse fill="none" stroke="black" cx="439" cy="-1098" rx="27" ry="18"/>
<text text-anchor="middle" x="439" y="-1094.3" font-family="Times,serif" font-size="14.00">C</text>
</g>
<!-- S&#45;&gt;C -->
<g id="edge1" class="edge">
<title>S&#45;&gt;C</title>
<path fill="none" stroke="black" d="M1298.97,-1166.87C1170.8,-1156.75 624.34,-1113.63 476.18,-1101.93"/>
<polygon fill="black" stroke="black" points="476.06,-1098.41 465.82,-1101.12 475.51,-1105.39 476.06,-1098.41"/>
</g>
<!-- Q -->
<g id="node17" class="node">
<title>Q</title>
<ellipse fill="none" stroke="black" cx="815" cy="-738" rx="27" ry="18"/>
<text text-anchor="middle" x="815" y="-734.3" font-family="Times,serif" font-size="14.00">Q</text>
</g>
<!-- S&#45;&gt;Q -->
<g id="edge72" class="edge">
<title>S&#45;&gt;Q</title>
<path fill="none" stroke="black" d="M1302.81,-1160.42C1231.74,-1133.08 1014.24,-1041.38 889,-900 870.24,-878.82 840.24,-804.98 824.84,-765.07"/>
<polygon fill="black" stroke="black" points="828.1,-763.79 821.25,-755.71 821.56,-766.3 828.1,-763.79"/>
</g>
<!-- D -->
<g id="node21" class="node">
<title>D</title>
<ellipse fill="none" stroke="black" cx="1081" cy="-666" rx="27" ry="18"/>
<text text-anchor="middle" x="1081" y="-662.3" font-family="Times,serif" font-size="14.00">D</text>
</g>
<!-- S&#45;&gt;D -->
<g id="edge37" class="edge">
<title>S&#45;&gt;D</title>
<path fill="none" stroke="black" d="M1340.3,-1154.23C1362.31,-1129.85 1402,-1078.73 1402,-1027 1402,-1027 1402,-1027 1402,-953 1402,-800.02 1196.26,-708.68 1114.2,-678.33"/>
<polygon fill="black" stroke="black" points="1115.2,-674.97 1104.6,-674.85 1112.81,-681.55 1115.2,-674.97"/>
</g>
<!-- G -->
<g id="node22" class="node">
<title>G</title>
<ellipse fill="none" stroke="black" cx="401" cy="-594" rx="27" ry="18"/>
<text text-anchor="middle" x="401" y="-590.3" font-family="Times,serif" font-size="14.00">G</text>
</g>
<!-- S&#45;&gt;G -->
<g id="edge98" class="edge">
<title>S&#45;&gt;G</title>
<path fill="none" stroke="black" d="M1298.8,-1168.95C1112.99,-1168.25 38,-1158.53 38,-1027 38,-1027 38,-1027 38,-881 38,-714.9 275.39,-630.41 366.22,-604.16"/>
<polygon fill="black" stroke="black" points="367.38,-607.47 376.05,-601.38 365.47,-600.74 367.38,-607.47"/>
</g>
<!-- Z -->
<g id="node25" class="node">
<title>Z</title>
<ellipse fill="none" stroke="black" cx="885" cy="-90" rx="27" ry="18"/>
<text text-anchor="middle" x="885" y="-86.3" font-family="Times,serif" font-size="14.00">Z</text>
</g>
<!-- S&#45;&gt;Z -->
<g id="edge95" class="edge">
<title>S&#45;&gt;Z</title>
<path fill="none" stroke="black" d="M1345.34,-1157.19C1377.86,-1135.67 1440,-1086.75 1440,-1027 1440,-1027 1440,-1027 1440,-737 1440,-490.22 1446.38,-362.79 1248,-216 1195.22,-176.95 1180.31,-167.49 1119,-144 1051.56,-118.16 968.13,-103.01 921.31,-95.92"/>
<polygon fill="black" stroke="black" points="921.74,-92.45 911.34,-94.45 920.72,-99.37 921.74,-92.45"/>
</g>
<!-- R -->
<g id="node3" class="node">
<title>R</title>
<ellipse fill="none" stroke="black" cx="1214" cy="-594" rx="27" ry="18"/>
<text text-anchor="middle" x="1214" y="-590.3" font-family="Times,serif" font-size="14.00">R</text>
</g>
<!-- C&#45;&gt;R -->
<g id="edge2" class="edge">
<title>C&#45;&gt;R</title>
<path fill="none" stroke="black" d="M466.06,-1096.37C596.89,-1092.87 1163.25,-1072.06 1302,-972 1368.32,-924.17 1356.04,-872.18 1340,-792 1326.4,-724.01 1321.66,-703.43 1280,-648 1269.6,-634.16 1254.79,-621.83 1241.84,-612.56"/>
<polygon fill="black" stroke="black" points="1243.47,-609.43 1233.24,-606.64 1239.5,-615.2 1243.47,-609.43"/>
</g>
<!-- L -->
<g id="node4" class="node">
<title>L</title>
<ellipse fill="none" stroke="black" cx="832" cy="-1026" rx="27" ry="18"/>
<text text-anchor="middle" x="832" y="-1022.3" font-family="Times,serif" font-size="14.00">L</text>
</g>
<!-- C&#45;&gt;L -->
<g id="edge52" class="edge">
<title>C&#45;&gt;L</title>
<path fill="none" stroke="black" d="M464.79,-1092.41C532.94,-1080.27 717.95,-1047.31 796.24,-1033.37"/>
<polygon fill="black" stroke="black" points="796.89,-1036.81 806.12,-1031.61 795.66,-1029.92 796.89,-1036.81"/>
</g>
<!-- P -->
<g id="node8" class="node">
<title>P</title>
<ellipse fill="none" stroke="black" cx="439" cy="-954" rx="27" ry="18"/>
<text text-anchor="middle" x="439" y="-950.3" font-family="Times,serif" font-size="14.00">P</text>
</g>
<!-- C&#45;&gt;P -->
<g id="edge96" class="edge">
<title>C&#45;&gt;P</title>
<path fill="none" stroke="black" d="M439,-1079.87C439,-1055.67 439,-1011.21 439,-982.39"/>
<polygon fill="black" stroke="black" points="442.5,-982.19 439,-972.19 435.5,-982.19 442.5,-982.19"/>
</g>
<!-- Y -->
<g id="node9" class="node">
<title>Y</title>
<ellipse fill="none" stroke="black" cx="253" cy="-594" rx="27" ry="18"/>
<text text-anchor="middle" x="253" y="-590.3" font-family="Times,serif" font-size="14.00">Y</text>
</g>
<!-- C&#45;&gt;Y -->
<g id="edge58" class="edge">
<title>C&#45;&gt;Y</title>
<path fill="none" stroke="black" d="M411.84,-1096.77C360.89,-1095.28 248.79,-1086.93 167,-1044 116.91,-1017.71 76,-1011.57 76,-955 76,-955 76,-955 76,-881 76,-765.32 121.19,-739.48 192,-648 201.88,-635.23 215.2,-623.24 226.88,-613.89"/>
<polygon fill="black" stroke="black" points="229.25,-616.48 235.01,-607.59 224.97,-610.95 229.25,-616.48"/>
</g>
<!-- J -->
<g id="node11" class="node">
<title>J</title>
<ellipse fill="none" stroke="black" cx="735" cy="-378" rx="27" ry="18"/>
<text text-anchor="middle" x="735" y="-374.3" font-family="Times,serif" font-size="14.00">J</text>
</g>
<!-- C&#45;&gt;J -->
<g id="edge50" class="edge">
<title>C&#45;&gt;J</title>
<path fill="none" stroke="black" d="M412.28,-1094.9C341.75,-1089.05 152.14,-1071.15 96,-1044 43.62,-1018.67 0,-1013.18 0,-955 0,-955 0,-955 0,-881 0,-599.1 183.96,-530.75 448,-432 534.05,-399.82 642.18,-386.64 697.94,-381.68"/>
<polygon fill="black" stroke="black" points="698.38,-385.16 708.05,-380.83 697.79,-378.18 698.38,-385.16"/>
</g>
<!-- T -->
<g id="node12" class="node">
<title>T</title>
<ellipse fill="none" stroke="black" cx="553" cy="-666" rx="27" ry="18"/>
<text text-anchor="middle" x="553" y="-662.3" font-family="Times,serif" font-size="14.00">T</text>
</g>
<!-- C&#45;&gt;T -->
<g id="edge57" class="edge">
<title>C&#45;&gt;T</title>
<path fill="none" stroke="black" d="M412,-1096.06C340.56,-1092 152,-1070.35 152,-955 152,-955 152,-955 152,-881 152,-716.92 416.53,-678.2 515.88,-669.45"/>
<polygon fill="black" stroke="black" points="516.39,-672.92 526.07,-668.6 515.81,-665.94 516.39,-672.92"/>
</g>
<!-- N -->
<g id="node13" class="node">
<title>N</title>
<ellipse fill="none" stroke="black" cx="392" cy="-882" rx="27" ry="18"/>
<text text-anchor="middle" x="392" y="-878.3" font-family="Times,serif" font-size="14.00">N</text>
</g>
<!-- C&#45;&gt;N -->
<g id="edge78" class="edge">
<title>C&#45;&gt;N</title>
<path fill="none" stroke="black" d="M433.25,-1080.23C425.31,-1056.43 411.05,-1011.38 403,-972 398.82,-951.54 396,-928.08 394.26,-910.39"/>
<polygon fill="black" stroke="black" points="397.72,-909.83 393.32,-900.19 390.75,-910.47 397.72,-909.83"/>
</g>
<!-- A -->
<g id="node20" class="node">
<title>A</title>
<ellipse fill="none" stroke="black" cx="490" cy="-738" rx="27" ry="18"/>
<text text-anchor="middle" x="490" y="-734.3" font-family="Times,serif" font-size="14.00">A</text>
</g>
<!-- C&#45;&gt;A -->
<g id="edge45" class="edge">
<title>C&#45;&gt;A</title>
<path fill="none" stroke="black" d="M449.6,-1081.16C465.59,-1055.72 494,-1003.64 494,-955 494,-955 494,-955 494,-881 494,-840.98 492.39,-794.64 491.22,-766.07"/>
<polygon fill="black" stroke="black" points="494.71,-765.89 490.79,-756.04 487.72,-766.18 494.71,-765.89"/>
</g>
<!-- R&#45;&gt;J -->
<g id="edge17" class="edge">
<title>R&#45;&gt;J</title>
<path fill="none" stroke="black" d="M1193.74,-581.94C1143.02,-554.49 1006.07,-481.85 887,-432 847.16,-415.32 800.04,-399.47 768.93,-389.52"/>
<polygon fill="black" stroke="black" points="769.62,-386.07 759.03,-386.38 767.51,-392.74 769.62,-386.07"/>
</g>
<!-- I -->
<g id="node14" class="node">
<title>I</title>
<ellipse fill="none" stroke="black" cx="753" cy="-18" rx="27" ry="18"/>
<text text-anchor="middle" x="753" y="-14.3" font-family="Times,serif" font-size="14.00">I</text>
</g>
<!-- R&#45;&gt;I -->
<g id="edge27" class="edge">
<title>R&#45;&gt;I</title>
<path fill="none" stroke="black" d="M1224.05,-576.97C1229.86,-566.79 1236.67,-553.11 1240,-540 1247.89,-508.96 1242.11,-500.02 1243,-468 1247,-324.04 1309.38,-273.8 1247,-144 1224.81,-97.83 1204.13,-92.07 1157,-72 1091.16,-43.96 877.07,-27.14 790.17,-21.32"/>
<polygon fill="black" stroke="black" points="790.18,-17.81 779.98,-20.64 789.72,-24.79 790.18,-17.81"/>
</g>
<!-- E -->
<g id="node24" class="node">
<title>E</title>
<ellipse fill="none" stroke="black" cx="819" cy="-306" rx="27" ry="18"/>
<text text-anchor="middle" x="819" y="-302.3" font-family="Times,serif" font-size="14.00">E</text>
</g>
<!-- R&#45;&gt;E -->
<g id="edge86" class="edge">
<title>R&#45;&gt;E</title>
<path fill="none" stroke="black" d="M1206.62,-576.35C1186.6,-533.22 1126.86,-417.2 1040,-360 983.29,-322.65 902.95,-311.57 856.38,-308.31"/>
<polygon fill="black" stroke="black" points="856.34,-304.8 846.14,-307.69 855.91,-311.79 856.34,-304.8"/>
</g>
<!-- F -->
<g id="node26" class="node">
<title>F</title>
<ellipse fill="none" stroke="black" cx="950" cy="-234" rx="27" ry="18"/>
<text text-anchor="middle" x="950" y="-230.3" font-family="Times,serif" font-size="14.00">F</text>
</g>
<!-- R&#45;&gt;F -->
<g id="edge32" class="edge">
<title>R&#45;&gt;F</title>
<path fill="none" stroke="black" d="M1217.9,-576C1228.7,-524.05 1253.08,-366.2 1171,-288 1144.77,-263.01 1042.42,-246.6 986.68,-239.32"/>
<polygon fill="black" stroke="black" points="986.88,-235.81 976.52,-238.02 985.99,-242.76 986.88,-235.81"/>
</g>
<!-- L&#45;&gt;R -->
<g id="edge39" class="edge">
<title>L&#45;&gt;R</title>
<path fill="none" stroke="black" d="M859.16,-1024.86C957.33,-1022.78 1288,-1001.64 1288,-811 1288,-811 1288,-811 1288,-737 1288,-690.59 1256.53,-644.33 1234.64,-617.75"/>
<polygon fill="black" stroke="black" points="1237.06,-615.2 1227.92,-609.84 1231.73,-619.73 1237.06,-615.2"/>
</g>
<!-- W -->
<g id="node5" class="node">
<title>W</title>
<ellipse fill="none" stroke="black" cx="703" cy="-954" rx="27" ry="18"/>
<text text-anchor="middle" x="703" y="-950.3" font-family="Times,serif" font-size="14.00">W</text>
</g>
<!-- L&#45;&gt;W -->
<g id="edge3" class="edge">
<title>L&#45;&gt;W</title>
<path fill="none" stroke="black" d="M811.56,-1013.91C790.24,-1002.34 756.6,-984.09 732.42,-970.97"/>
<polygon fill="black" stroke="black" points="733.8,-967.73 723.34,-966.04 730.46,-973.89 733.8,-967.73"/>
</g>
<!-- V -->
<g id="node6" class="node">
<title>V</title>
<ellipse fill="none" stroke="black" cx="925" cy="-882" rx="27" ry="18"/>
<text text-anchor="middle" x="925" y="-878.3" font-family="Times,serif" font-size="14.00">V</text>
</g>
<!-- L&#45;&gt;V -->
<g id="edge94" class="edge">
<title>L&#45;&gt;V</title>
<path fill="none" stroke="black" d="M842.31,-1009.26C858.51,-984.52 890.05,-936.37 909.15,-907.2"/>
<polygon fill="black" stroke="black" points="912.09,-909.09 914.65,-898.81 906.24,-905.26 912.09,-909.09"/>
</g>
<!-- L&#45;&gt;T -->
<g id="edge41" class="edge">
<title>L&#45;&gt;T</title>
<path fill="none" stroke="black" d="M804.95,-1022.97C738.01,-1016.32 570,-989.06 570,-883 570,-883 570,-883 570,-809 570,-768.71 563.17,-722.44 558.17,-693.96"/>
<polygon fill="black" stroke="black" points="561.58,-693.19 556.36,-683.97 554.7,-694.43 561.58,-693.19"/>
</g>
<!-- L&#45;&gt;Q -->
<g id="edge68" class="edge">
<title>L&#45;&gt;Q</title>
<path fill="none" stroke="black" d="M830.99,-1007.97C828.15,-960.29 820.12,-825.18 816.64,-766.63"/>
<polygon fill="black" stroke="black" points="820.12,-766.08 816.03,-756.31 813.13,-766.5 820.12,-766.08"/>
</g>
<!-- L&#45;&gt;Z -->
<g id="edge28" class="edge">
<title>L&#45;&gt;Z</title>
<path fill="none" stroke="black" d="M858.95,-1023.31C934.06,-1018.26 1144.28,-1001.78 1206,-972 1247.91,-951.78 1256.68,-939.04 1282,-900 1311.87,-853.95 1364,-721.89 1364,-667 1364,-667 1364,-667 1364,-449 1364,-227.48 1031.26,-126.53 920.43,-99.05"/>
<polygon fill="black" stroke="black" points="920.96,-95.58 910.41,-96.62 919.31,-102.38 920.96,-95.58"/>
</g>
<!-- W&#45;&gt;R -->
<g id="edge79" class="edge">
<title>W&#45;&gt;R</title>
<path fill="none" stroke="black" d="M729.88,-952.04C831.43,-948.17 1187.88,-932.39 1226,-900 1257.22,-873.48 1250,-851.97 1250,-811 1250,-811 1250,-811 1250,-737 1250,-695.55 1235.41,-649.32 1224.8,-621.2"/>
<polygon fill="black" stroke="black" points="1228,-619.75 1221.11,-611.7 1221.47,-622.29 1228,-619.75"/>
</g>
<!-- B -->
<g id="node7" class="node">
<title>B</title>
<ellipse fill="none" stroke="black" cx="819" cy="-450" rx="27" ry="18"/>
<text text-anchor="middle" x="819" y="-446.3" font-family="Times,serif" font-size="14.00">B</text>
</g>
<!-- W&#45;&gt;B -->
<g id="edge44" class="edge">
<title>W&#45;&gt;B</title>
<path fill="none" stroke="black" d="M706.93,-936.01C724,-862.12 791.87,-568.4 812.81,-477.77"/>
<polygon fill="black" stroke="black" points="816.23,-478.52 815.07,-467.99 809.41,-476.94 816.23,-478.52"/>
</g>
<!-- W&#45;&gt;J -->
<g id="edge85" class="edge">
<title>W&#45;&gt;J</title>
<path fill="none" stroke="black" d="M697.17,-936.07C678.41,-880.72 621.4,-705.34 632,-648 649.36,-554.12 698.11,-450.65 721.78,-404.11"/>
<polygon fill="black" stroke="black" points="724.97,-405.56 726.43,-395.07 718.74,-402.36 724.97,-405.56"/>
</g>
<!-- W&#45;&gt;T -->
<g id="edge8" class="edge">
<title>W&#45;&gt;T</title>
<path fill="none" stroke="black" d="M692.42,-937.04C685.69,-926.66 676.98,-912.74 670,-900 627.39,-822.25 625.53,-798.33 584,-720 579.03,-710.63 573.25,-700.55 568.03,-691.71"/>
<polygon fill="black" stroke="black" points="570.98,-689.83 562.85,-683.04 564.97,-693.42 570.98,-689.83"/>
</g>
<!-- W&#45;&gt;N -->
<g id="edge83" class="edge">
<title>W&#45;&gt;N</title>
<path fill="none" stroke="black" d="M677.81,-947.33C622.61,-934.91 490.84,-905.25 427.36,-890.96"/>
<polygon fill="black" stroke="black" points="427.95,-887.5 417.42,-888.72 426.41,-894.33 427.95,-887.5"/>
</g>
<!-- V&#45;&gt;B -->
<g id="edge4" class="edge">
<title>V&#45;&gt;B</title>
<path fill="none" stroke="black" d="M925.73,-863.81C926.2,-845.79 926.08,-816.71 922,-792 902.1,-671.37 851.51,-533.69 829.5,-477.24"/>
<polygon fill="black" stroke="black" points="832.65,-475.69 825.73,-467.66 826.14,-478.25 832.65,-475.69"/>
</g>
<!-- V&#45;&gt;J -->
<g id="edge90" class="edge">
<title>V&#45;&gt;J</title>
<path fill="none" stroke="black" d="M918.68,-864.3C890.84,-790.75 779.05,-495.38 744.93,-405.25"/>
<polygon fill="black" stroke="black" points="748.16,-403.88 741.35,-395.77 741.61,-406.36 748.16,-403.88"/>
</g>
<!-- H -->
<g id="node15" class="node">
<title>H</title>
<ellipse fill="none" stroke="black" cx="777" cy="-810" rx="27" ry="18"/>
<text text-anchor="middle" x="777" y="-806.3" font-family="Times,serif" font-size="14.00">H</text>
</g>
<!-- V&#45;&gt;H -->
<g id="edge100" class="edge">
<title>V&#45;&gt;H</title>
<path fill="none" stroke="black" d="M903.48,-870.82C878.27,-858.9 836.32,-839.06 807.7,-825.52"/>
<polygon fill="black" stroke="black" points="809.08,-822.3 798.55,-821.19 806.09,-828.63 809.08,-822.3"/>
</g>
<!-- U -->
<g id="node23" class="node">
<title>U</title>
<ellipse fill="none" stroke="black" cx="933" cy="-522" rx="27" ry="18"/>
<text text-anchor="middle" x="933" y="-518.3" font-family="Times,serif" font-size="14.00">U</text>
</g>
<!-- V&#45;&gt;U -->
<g id="edge66" class="edge">
<title>V&#45;&gt;U</title>
<path fill="none" stroke="black" d="M938.37,-866C946.36,-856.01 955.75,-842.15 960,-828 989.89,-728.48 958.4,-603.12 941.83,-549.4"/>
<polygon fill="black" stroke="black" points="945.09,-548.12 938.74,-539.64 938.42,-550.23 945.09,-548.12"/>
</g>
<!-- B&#45;&gt;J -->
<g id="edge20" class="edge">
<title>B&#45;&gt;J</title>
<path fill="none" stroke="black" d="M802.8,-435.5C790.37,-425.14 773.01,-410.67 758.97,-398.97"/>
<polygon fill="black" stroke="black" points="761.07,-396.17 751.15,-392.46 756.59,-401.55 761.07,-396.17"/>
</g>
<!-- B&#45;&gt;I -->
<g id="edge101" class="edge">
<title>B&#45;&gt;I</title>
<path fill="none" stroke="black" d="M845.84,-447.78C937.58,-442.04 1233,-409.97 1233,-235 1233,-235 1233,-235 1233,-161 1233,-68.71 902.58,-31.81 790.03,-21.92"/>
<polygon fill="black" stroke="black" points="790.1,-18.42 779.84,-21.05 789.5,-25.39 790.1,-18.42"/>
</g>
<!-- B&#45;&gt;E -->
<g id="edge89" class="edge">
<title>B&#45;&gt;E</title>
<path fill="none" stroke="black" d="M819,-431.87C819,-407.67 819,-363.21 819,-334.39"/>
<polygon fill="black" stroke="black" points="822.5,-334.19 819,-324.19 815.5,-334.19 822.5,-334.19"/>
</g>
<!-- B&#45;&gt;Z -->
<g id="edge80" class="edge">
<title>B&#45;&gt;Z</title>
<path fill="none" stroke="black" d="M824.63,-432.2C832.43,-408.38 846.52,-363.29 855,-324 868.65,-260.78 868.08,-244.19 876,-180 878.55,-159.32 880.9,-135.87 882.56,-118.24"/>
<polygon fill="black" stroke="black" points="886.06,-118.37 883.5,-108.09 879.09,-117.72 886.06,-118.37"/>
</g>
<!-- P&#45;&gt;R -->
<g id="edge49" class="edge">
<title>P&#45;&gt;R</title>
<path fill="none" stroke="black" d="M465.64,-950.95C587.78,-941.56 1088.5,-902.89 1096,-900 1156.64,-876.65 1212,-875.98 1212,-811 1212,-811 1212,-811 1212,-737 1212,-696.99 1212.8,-650.65 1213.39,-622.08"/>
<polygon fill="black" stroke="black" points="1216.89,-622.12 1213.6,-612.05 1209.89,-621.97 1216.89,-622.12"/>
</g>
<!-- P&#45;&gt;Y -->
<g id="edge5" class="edge">
<title>P&#45;&gt;Y</title>
<path fill="none" stroke="black" d="M412.24,-950.27C358.76,-944.27 241.45,-928.17 214,-900 157.4,-841.91 166.71,-799.24 184,-720 192.43,-681.39 217.12,-642.39 234.55,-618.46"/>
<polygon fill="black" stroke="black" points="237.42,-620.47 240.6,-610.36 231.81,-616.28 237.42,-620.47"/>
</g>
<!-- M -->
<g id="node10" class="node">
<title>M</title>
<ellipse fill="none" stroke="black" cx="1060" cy="-882" rx="27" ry="18"/>
<text text-anchor="middle" x="1060" y="-878.3" font-family="Times,serif" font-size="14.00">M</text>
</g>
<!-- P&#45;&gt;M -->
<g id="edge74" class="edge">
<title>P&#45;&gt;M</title>
<path fill="none" stroke="black" d="M465.7,-950.94C542.72,-944.87 771.92,-925.8 961,-900 982.14,-897.12 1005.68,-893.11 1024.51,-889.7"/>
<polygon fill="black" stroke="black" points="1025.23,-893.13 1034.43,-887.89 1023.97,-886.24 1025.23,-893.13"/>
</g>
<!-- O -->
<g id="node16" class="node">
<title>O</title>
<ellipse fill="none" stroke="black" cx="329" cy="-738" rx="27" ry="18"/>
<text text-anchor="middle" x="329" y="-734.3" font-family="Times,serif" font-size="14.00">O</text>
</g>
<!-- P&#45;&gt;O -->
<g id="edge76" class="edge">
<title>P&#45;&gt;O</title>
<path fill="none" stroke="black" d="M415.75,-944.43C396.56,-936.1 370.24,-921.53 356,-900 329.05,-859.26 326.15,-800.4 327.13,-766.29"/>
<polygon fill="black" stroke="black" points="330.64,-766.27 327.56,-756.13 323.64,-765.98 330.64,-766.27"/>
</g>
<!-- P&#45;&gt;Q -->
<g id="edge47" class="edge">
<title>P&#45;&gt;Q</title>
<path fill="none" stroke="black" d="M458.95,-941.65C521.41,-906.1 713.38,-796.84 786.4,-755.28"/>
<polygon fill="black" stroke="black" points="788.14,-758.32 795.1,-750.33 784.68,-752.23 788.14,-758.32"/>
</g>
<!-- K -->
<g id="node19" class="node">
<title>K</title>
<ellipse fill="none" stroke="black" cx="422" cy="-522" rx="27" ry="18"/>
<text text-anchor="middle" x="422" y="-518.3" font-family="Times,serif" font-size="14.00">K</text>
</g>
<!-- P&#45;&gt;K -->
<g id="edge61" class="edge">
<title>P&#45;&gt;K</title>
<path fill="none" stroke="black" d="M412.57,-949.9C382.3,-944.89 333.5,-932.08 307,-900 265.76,-850.09 288.58,-820.64 285,-756 280.16,-668.59 305.33,-640.06 365,-576 375.42,-564.81 387.77,-553.16 398.3,-543.64"/>
<polygon fill="black" stroke="black" points="400.81,-546.09 405.94,-536.82 396.15,-540.87 400.81,-546.09"/>
</g>
<!-- P&#45;&gt;A -->
<g id="edge97" class="edge">
<title>P&#45;&gt;A</title>
<path fill="none" stroke="black" d="M443.09,-935.85C451.95,-898.66 472.99,-810.37 483.62,-765.77"/>
<polygon fill="black" stroke="black" points="487.05,-766.47 485.96,-755.94 480.24,-764.85 487.05,-766.47"/>
</g>
<!-- P&#45;&gt;G -->
<g id="edge73" class="edge">
<title>P&#45;&gt;G</title>
<path fill="none" stroke="black" d="M413.92,-946.49C390.25,-939.07 355.42,-924.66 335,-900 292.48,-848.65 302.43,-822 293,-756 290.74,-740.16 287.42,-735 293,-720 309.43,-675.86 349.22,-636.91 375.65,-614.66"/>
<polygon fill="black" stroke="black" points="378.2,-617.09 383.71,-608.03 373.76,-611.68 378.2,-617.09"/>
</g>
<!-- Y&#45;&gt;J -->
<g id="edge7" class="edge">
<title>Y&#45;&gt;J</title>
<path fill="none" stroke="black" d="M270.55,-580.06C295.51,-561.93 343.02,-528.46 386,-504 450.62,-467.23 467.24,-457.72 537,-432 592.59,-411.5 659.63,-395.25 699.71,-386.39"/>
<polygon fill="black" stroke="black" points="700.51,-389.8 709.54,-384.24 699.02,-382.96 700.51,-389.8"/>
</g>
<!-- Y&#45;&gt;I -->
<g id="edge69" class="edge">
<title>Y&#45;&gt;I</title>
<path fill="none" stroke="black" d="M257.15,-576.07C263.27,-549.57 274,-496.61 274,-451 274,-451 274,-451 274,-161 274,-108.11 306.29,-96.81 353,-72 415.58,-38.76 629.07,-24.96 715.86,-20.63"/>
<polygon fill="black" stroke="black" points="716.22,-24.12 726.04,-20.14 715.88,-17.12 716.22,-24.12"/>
</g>
<!-- Y&#45;&gt;K -->
<g id="edge51" class="edge">
<title>Y&#45;&gt;K</title>
<path fill="none" stroke="black" d="M275.44,-583.7C304.94,-571.49 356.94,-549.95 390.4,-536.09"/>
<polygon fill="black" stroke="black" points="391.83,-539.28 399.73,-532.22 389.16,-532.82 391.83,-539.28"/>
</g>
<!-- M&#45;&gt;R -->
<g id="edge65" class="edge">
<title>M&#45;&gt;R</title>
<path fill="none" stroke="black" d="M1083.43,-873.05C1103.97,-864.9 1133.11,-850.24 1150,-828 1200.08,-762.07 1175.37,-727.64 1198,-648 1200.47,-639.32 1203.27,-629.89 1205.84,-621.41"/>
<polygon fill="black" stroke="black" points="1209.24,-622.25 1208.82,-611.67 1202.55,-620.21 1209.24,-622.25"/>
</g>
<!-- M&#45;&gt;B -->
<g id="edge6" class="edge">
<title>M&#45;&gt;B</title>
<path fill="none" stroke="black" d="M1052.56,-864.64C1027.97,-811.16 945.97,-637.22 860,-504 853.43,-493.82 845.42,-483.16 838.23,-474.08"/>
<polygon fill="black" stroke="black" points="840.93,-471.85 831.93,-466.26 835.48,-476.24 840.93,-471.85"/>
</g>
<!-- M&#45;&gt;H -->
<g id="edge42" class="edge">
<title>M&#45;&gt;H</title>
<path fill="none" stroke="black" d="M1034.89,-874.79C984.22,-862.26 869.7,-833.93 811.84,-819.62"/>
<polygon fill="black" stroke="black" points="812.61,-816.2 802.06,-817.2 810.93,-823 812.61,-816.2"/>
</g>
<!-- M&#45;&gt;D -->
<g id="edge35" class="edge">
<title>M&#45;&gt;D</title>
<path fill="none" stroke="black" d="M1065.48,-864.01C1068.56,-853.71 1072.14,-840.23 1074,-828 1081.07,-781.48 1081.87,-726.6 1081.59,-694.42"/>
<polygon fill="black" stroke="black" points="1085.09,-693.99 1081.45,-684.04 1078.09,-694.08 1085.09,-693.99"/>
</g>
<!-- M&#45;&gt;U -->
<g id="edge88" class="edge">
<title>M&#45;&gt;U</title>
<path fill="none" stroke="black" d="M1059.12,-863.71C1057.21,-833.81 1051.57,-770.8 1036,-720 1015.2,-652.15 1001.56,-637.98 967,-576 961.65,-566.4 955.26,-556.17 949.47,-547.29"/>
<polygon fill="black" stroke="black" points="952.38,-545.34 943.95,-538.92 946.54,-549.19 952.38,-545.34"/>
</g>
<!-- M&#45;&gt;E -->
<g id="edge56" class="edge">
<title>M&#45;&gt;E</title>
<path fill="none" stroke="black" d="M1070.21,-865.11C1093.4,-826.91 1145.87,-727.23 1117,-648 1062.37,-498.08 907.06,-371.54 845.05,-325.54"/>
<polygon fill="black" stroke="black" points="847.07,-322.69 836.93,-319.59 842.93,-328.33 847.07,-322.69"/>
</g>
<!-- X -->
<g id="node18" class="node">
<title>X</title>
<ellipse fill="none" stroke="black" cx="753" cy="-162" rx="27" ry="18"/>
<text text-anchor="middle" x="753" y="-158.3" font-family="Times,serif" font-size="14.00">X</text>
</g>
<!-- J&#45;&gt;X -->
<g id="edge63" class="edge">
<title>J&#45;&gt;X</title>
<path fill="none" stroke="black" d="M731.61,-359.84C726.34,-330.14 717.9,-267.4 729,-216 731.04,-206.53 734.92,-196.72 738.98,-188.15"/>
<polygon fill="black" stroke="black" points="742.17,-189.59 743.54,-179.08 735.92,-186.44 742.17,-189.59"/>
</g>
<!-- J&#45;&gt;E -->
<g id="edge21" class="edge">
<title>J&#45;&gt;E</title>
<path fill="none" stroke="black" d="M751.2,-363.5C763.63,-353.14 780.99,-338.67 795.03,-326.97"/>
<polygon fill="black" stroke="black" points="797.41,-329.55 802.85,-320.46 792.93,-324.17 797.41,-329.55"/>
</g>
<!-- J&#45;&gt;F -->
<g id="edge40" class="edge">
<title>J&#45;&gt;F</title>
<path fill="none" stroke="black" d="M758.75,-369.21C783.85,-360.37 824.04,-344.48 855,-324 883.83,-304.93 912.12,-276.89 930.22,-257.39"/>
<polygon fill="black" stroke="black" points="932.93,-259.61 937.1,-249.87 927.77,-254.89 932.93,-259.61"/>
</g>
<!-- T&#45;&gt;K -->
<g id="edge13" class="edge">
<title>T&#45;&gt;K</title>
<path fill="none" stroke="black" d="M539.47,-650.34C516.53,-625.47 469.83,-574.85 442.74,-545.48"/>
<polygon fill="black" stroke="black" points="445,-542.77 435.65,-537.79 439.86,-547.52 445,-542.77"/>
</g>
<!-- T&#45;&gt;G -->
<g id="edge70" class="edge">
<title>T&#45;&gt;G</title>
<path fill="none" stroke="black" d="M531.22,-654.97C505.26,-643.02 461.69,-622.95 432.17,-609.35"/>
<polygon fill="black" stroke="black" points="433.28,-606.01 422.74,-605.01 430.36,-612.37 433.28,-606.01"/>
</g>
<!-- T&#45;&gt;F -->
<g id="edge33" class="edge">
<title>T&#45;&gt;F</title>
<path fill="none" stroke="black" d="M575.66,-655.94C630.91,-632.78 773.91,-566.25 855,-468 907.37,-404.55 934.1,-308.35 944.57,-261.93"/>
<polygon fill="black" stroke="black" points="948.02,-262.55 946.73,-252.03 941.18,-261.06 948.02,-262.55"/>
</g>
<!-- N&#45;&gt;B -->
<g id="edge87" class="edge">
<title>N&#45;&gt;B</title>
<path fill="none" stroke="black" d="M417.4,-875.42C488.44,-858.15 684,-798.67 684,-667 684,-667 684,-667 684,-593 684,-532.69 748.75,-487.81 788.56,-465.91"/>
<polygon fill="black" stroke="black" points="790.43,-468.89 797.61,-461.09 787.14,-462.71 790.43,-468.89"/>
</g>
<!-- N&#45;&gt;J -->
<g id="edge75" class="edge">
<title>N&#45;&gt;J</title>
<path fill="none" stroke="black" d="M397.51,-864.19C407.44,-834.5 429.62,-771.09 454,-720 522.91,-575.6 553.43,-541.6 670,-432 682.5,-420.25 697.26,-408.09 709.55,-398.39"/>
<polygon fill="black" stroke="black" points="711.88,-401.01 717.61,-392.1 707.58,-395.49 711.88,-401.01"/>
</g>
<!-- N&#45;&gt;I -->
<g id="edge9" class="edge">
<title>N&#45;&gt;I</title>
<path fill="none" stroke="black" d="M366.78,-875.57C280.58,-855.37 3,-776.27 3,-595 3,-595 3,-595 3,-161 3,-76.9 89.41,-96.06 170,-72 273.07,-41.23 604.27,-25.11 715.88,-20.45"/>
<polygon fill="black" stroke="black" points="716.14,-23.94 725.98,-20.03 715.85,-16.95 716.14,-23.94"/>
</g>
<!-- N&#45;&gt;H -->
<g id="edge99" class="edge">
<title>N&#45;&gt;H</title>
<path fill="none" stroke="black" d="M417.86,-876.3C484.84,-864.12 664.14,-831.52 741.1,-817.53"/>
<polygon fill="black" stroke="black" points="742.04,-820.91 751.25,-815.68 740.79,-814.03 742.04,-820.91"/>
</g>
<!-- N&#45;&gt;O -->
<g id="edge29" class="edge">
<title>N&#45;&gt;O</title>
<path fill="none" stroke="black" d="M383.54,-864.42C378.32,-854.03 371.58,-840.32 366,-828 356.5,-807 346.51,-782.84 339.31,-764.99"/>
<polygon fill="black" stroke="black" points="342.49,-763.51 335.52,-755.53 335.99,-766.12 342.49,-763.51"/>
</g>
<!-- N&#45;&gt;G -->
<g id="edge34" class="edge">
<title>N&#45;&gt;G</title>
<path fill="none" stroke="black" d="M392.54,-863.97C394.04,-816.29 398.29,-681.18 400.13,-622.63"/>
<polygon fill="black" stroke="black" points="403.64,-622.41 400.46,-612.31 396.64,-622.19 403.64,-622.41"/>
</g>
<!-- H&#45;&gt;O -->
<g id="edge10" class="edge">
<title>H&#45;&gt;O</title>
<path fill="none" stroke="black" d="M750.98,-804.93C674.89,-793.05 452.68,-758.32 365.09,-744.64"/>
<polygon fill="black" stroke="black" points="365.52,-741.16 355.09,-743.08 364.43,-748.08 365.52,-741.16"/>
</g>
<!-- H&#45;&gt;D -->
<g id="edge60" class="edge">
<title>H&#45;&gt;D</title>
<path fill="none" stroke="black" d="M798.86,-798.79C852.1,-773.92 988.62,-710.15 1050.13,-681.42"/>
<polygon fill="black" stroke="black" points="1051.76,-684.52 1059.34,-677.12 1048.79,-678.18 1051.76,-684.52"/>
</g>
<!-- H&#45;&gt;Z -->
<g id="edge64" class="edge">
<title>H&#45;&gt;Z</title>
<path fill="none" stroke="black" d="M765.91,-793.48C728.31,-739.27 608,-552.26 608,-379 608,-379 608,-379 608,-233 608,-126.29 772.8,-99.71 848.17,-93.14"/>
<polygon fill="black" stroke="black" points="848.5,-96.63 858.19,-92.34 847.94,-89.65 848.5,-96.63"/>
</g>
<!-- O&#45;&gt;T -->
<g id="edge11" class="edge">
<title>O&#45;&gt;T</title>
<path fill="none" stroke="black" d="M352.97,-729.51C392.95,-717.02 473.35,-691.89 519.11,-677.59"/>
<polygon fill="black" stroke="black" points="520.36,-680.87 528.86,-674.54 518.27,-674.19 520.36,-680.87"/>
</g>
<!-- O&#45;&gt;I -->
<g id="edge91" class="edge">
<title>O&#45;&gt;I</title>
<path fill="none" stroke="black" d="M309.61,-725.22C265.22,-696.58 160,-618.63 160,-523 160,-523 160,-523 160,-161 160,-114.27 176.25,-96.58 216,-72 299.76,-20.21 608.15,-17.74 715.7,-18.51"/>
<polygon fill="black" stroke="black" points="715.73,-22.01 725.76,-18.6 715.79,-15.01 715.73,-22.01"/>
</g>
<!-- O&#45;&gt;D -->
<g id="edge30" class="edge">
<title>O&#45;&gt;D</title>
<path fill="none" stroke="black" d="M355.29,-733.03C380.55,-729.31 419.82,-723.77 454,-720 677.45,-695.38 946.81,-676.09 1043.88,-669.48"/>
<polygon fill="black" stroke="black" points="1044.32,-672.95 1054.06,-668.78 1043.85,-665.97 1044.32,-672.95"/>
</g>
<!-- O&#45;&gt;E -->
<g id="edge82" class="edge">
<title>O&#45;&gt;E</title>
<path fill="none" stroke="black" d="M329.16,-719.83C330.34,-678.82 338.17,-573.46 386,-504 480.76,-366.38 696.17,-323.24 782.36,-311.2"/>
<polygon fill="black" stroke="black" points="783,-314.65 792.45,-309.85 782.07,-307.71 783,-314.65"/>
</g>
<!-- Q&#45;&gt;T -->
<g id="edge92" class="edge">
<title>Q&#45;&gt;T</title>
<path fill="none" stroke="black" d="M790.35,-730.41C743.44,-717.88 641.22,-690.57 587.52,-676.22"/>
<polygon fill="black" stroke="black" points="588.34,-672.82 577.77,-673.62 586.53,-679.58 588.34,-672.82"/>
</g>
<!-- Q&#45;&gt;X -->
<g id="edge12" class="edge">
<title>Q&#45;&gt;X</title>
<path fill="none" stroke="black" d="M789.89,-731.03C720.62,-712.91 532,-651.74 532,-523 532,-523 532,-523 532,-305 532,-218.17 654.25,-181.95 716.9,-169.09"/>
<polygon fill="black" stroke="black" points="717.64,-172.51 726.78,-167.15 716.29,-165.64 717.64,-172.51"/>
</g>
<!-- Q&#45;&gt;U -->
<g id="edge93" class="edge">
<title>Q&#45;&gt;U</title>
<path fill="none" stroke="black" d="M822.84,-720.77C831.6,-702.81 846.34,-673.09 860,-648 879.17,-612.77 902.81,-572.88 917.9,-547.83"/>
<polygon fill="black" stroke="black" points="921.06,-549.37 923.24,-539 915.07,-545.75 921.06,-549.37"/>
</g>
<!-- Q&#45;&gt;F -->
<g id="edge38" class="edge">
<title>Q&#45;&gt;F</title>
<path fill="none" stroke="black" d="M831.17,-723.57C864.87,-694.4 941.71,-621.28 969,-540 1002.01,-441.69 973.53,-315.69 958.22,-261.6"/>
<polygon fill="black" stroke="black" points="961.51,-260.4 955.36,-251.77 954.79,-262.35 961.51,-260.4"/>
</g>
<!-- X&#45;&gt;I -->
<g id="edge54" class="edge">
<title>X&#45;&gt;I</title>
<path fill="none" stroke="black" d="M753,-143.87C753,-119.67 753,-75.21 753,-46.39"/>
<polygon fill="black" stroke="black" points="756.5,-46.19 753,-36.19 749.5,-46.19 756.5,-46.19"/>
</g>
<!-- X&#45;&gt;Z -->
<g id="edge24" class="edge">
<title>X&#45;&gt;Z</title>
<path fill="none" stroke="black" d="M773.62,-150.06C795.61,-138.4 830.63,-119.83 855.52,-106.63"/>
<polygon fill="black" stroke="black" points="857.32,-109.64 864.52,-101.86 854.05,-103.45 857.32,-109.64"/>
</g>
<!-- K&#45;&gt;B -->
<g id="edge67" class="edge">
<title>K&#45;&gt;B</title>
<path fill="none" stroke="black" d="M447.74,-516.46C516.4,-504.36 704,-471.28 783.08,-457.33"/>
<polygon fill="black" stroke="black" points="783.82,-460.76 793.06,-455.57 782.6,-453.86 783.82,-460.76"/>
</g>
<!-- K&#45;&gt;J -->
<g id="edge19" class="edge">
<title>K&#45;&gt;J</title>
<path fill="none" stroke="black" d="M444.01,-511.01C498.56,-486.27 640.17,-422.02 703.54,-393.27"/>
<polygon fill="black" stroke="black" points="705.35,-396.29 713.01,-388.97 702.46,-389.92 705.35,-396.29"/>
</g>
<!-- K&#45;&gt;I -->
<g id="edge31" class="edge">
<title>K&#45;&gt;I</title>
<path fill="none" stroke="black" d="M402.84,-508.67C371.32,-486.73 312,-437.63 312,-379 312,-379 312,-379 312,-161 312,-76.34 610.23,-34.89 716.19,-22.84"/>
<polygon fill="black" stroke="black" points="716.86,-26.28 726.41,-21.7 716.08,-19.33 716.86,-26.28"/>
</g>
<!-- K&#45;&gt;E -->
<g id="edge59" class="edge">
<title>K&#45;&gt;E</title>
<path fill="none" stroke="black" d="M437.5,-507.03C458.8,-488.31 498.85,-454.78 537,-432 622.27,-381.07 731.99,-338.33 785.99,-318.64"/>
<polygon fill="black" stroke="black" points="787.19,-321.93 795.4,-315.24 784.81,-315.35 787.19,-321.93"/>
</g>
<!-- A&#45;&gt;B -->
<g id="edge48" class="edge">
<title>A&#45;&gt;B</title>
<path fill="none" stroke="black" d="M492.49,-719.84C495.8,-701.07 502.96,-670.64 517,-648 566.22,-568.64 590.31,-552.68 670,-504 705.89,-482.07 752.18,-467.41 783.57,-459.17"/>
<polygon fill="black" stroke="black" points="784.78,-462.47 793.61,-456.62 783.05,-455.69 784.78,-462.47"/>
</g>
<!-- A&#45;&gt;I -->
<g id="edge84" class="edge">
<title>A&#45;&gt;I</title>
<path fill="none" stroke="black" d="M463.84,-732.98C408.92,-723.11 281.4,-692.32 217,-612 191.7,-580.44 198,-563.45 198,-523 198,-523 198,-523 198,-161 198,-104.11 238.56,-96.3 290,-72 365.44,-36.35 619.89,-23.74 715.91,-20.19"/>
<polygon fill="black" stroke="black" points="716.15,-23.68 726.02,-19.83 715.9,-16.69 716.15,-23.68"/>
</g>
<!-- A&#45;&gt;D -->
<g id="edge14" class="edge">
<title>A&#45;&gt;D</title>
<path fill="none" stroke="black" d="M516.54,-733.86C611.53,-722.61 934.72,-684.33 1044.31,-671.35"/>
<polygon fill="black" stroke="black" points="1045.01,-674.79 1054.53,-670.14 1044.19,-667.84 1045.01,-674.79"/>
</g>
<!-- A&#45;&gt;G -->
<g id="edge55" class="edge">
<title>A&#45;&gt;G</title>
<path fill="none" stroke="black" d="M479.96,-720.99C464.54,-696.38 434.88,-649.06 416.63,-619.94"/>
<polygon fill="black" stroke="black" points="419.41,-617.79 411.14,-611.17 413.48,-621.5 419.41,-617.79"/>
</g>
<!-- D&#45;&gt;R -->
<g id="edge62" class="edge">
<title>D&#45;&gt;R</title>
<path fill="none" stroke="black" d="M1101.49,-654.22C1123.59,-642.59 1158.98,-623.96 1184.16,-610.7"/>
<polygon fill="black" stroke="black" points="1186.05,-613.67 1193.27,-605.91 1182.79,-607.47 1186.05,-613.67"/>
</g>
<!-- D&#45;&gt;X -->
<g id="edge16" class="edge">
<title>D&#45;&gt;X</title>
<path fill="none" stroke="black" d="M1071.15,-648.71C1052.74,-618.78 1011.13,-553.54 969,-504 894.47,-416.37 837.44,-425.34 783,-324 760.03,-281.24 754.35,-223.92 753.12,-190.47"/>
<polygon fill="black" stroke="black" points="756.61,-190 752.86,-180.1 749.61,-190.18 756.61,-190"/>
</g>
<!-- D&#45;&gt;F -->
<g id="edge43" class="edge">
<title>D&#45;&gt;F</title>
<path fill="none" stroke="black" d="M1089.43,-648.66C1117.25,-592.22 1199.75,-402.65 1116,-288 1086.66,-247.83 1026.53,-237.4 987.26,-235.07"/>
<polygon fill="black" stroke="black" points="987.17,-231.57 977.03,-234.62 986.87,-238.56 987.17,-231.57"/>
</g>
<!-- G&#45;&gt;K -->
<g id="edge15" class="edge">
<title>G&#45;&gt;K</title>
<path fill="none" stroke="black" d="M406.08,-576.05C408.48,-568.06 411.4,-558.33 414.08,-549.4"/>
<polygon fill="black" stroke="black" points="417.44,-550.37 416.96,-539.79 410.74,-548.36 417.44,-550.37"/>
</g>
<!-- U&#45;&gt;B -->
<g id="edge18" class="edge">
<title>U&#45;&gt;B</title>
<path fill="none" stroke="black" d="M913.66,-509.13C895.4,-497.91 867.81,-480.97 847.11,-468.26"/>
<polygon fill="black" stroke="black" points="848.79,-465.18 838.43,-462.93 845.12,-471.15 848.79,-465.18"/>
</g>
<!-- U&#45;&gt;J -->
<g id="edge77" class="edge">
<title>U&#45;&gt;J</title>
<path fill="none" stroke="black" d="M922.52,-505.3C908.9,-485.9 883.48,-452.92 855,-432 828.59,-412.6 793.95,-398.26 768.68,-389.43"/>
<polygon fill="black" stroke="black" points="769.75,-386.09 759.16,-386.2 767.51,-392.72 769.75,-386.09"/>
</g>
<!-- U&#45;&gt;E -->
<g id="edge71" class="edge">
<title>U&#45;&gt;E</title>
<path fill="none" stroke="black" d="M924.63,-504.54C915.48,-486.64 900.36,-457.2 887,-432 868.53,-397.16 846.65,-357.18 832.8,-332"/>
<polygon fill="black" stroke="black" points="835.8,-330.19 827.91,-323.12 829.67,-333.57 835.8,-330.19"/>
</g>
<!-- E&#45;&gt;I -->
<g id="edge46" class="edge">
<title>E&#45;&gt;I</title>
<path fill="none" stroke="black" d="M816.38,-287.97C811.72,-258.46 801.31,-196.02 789,-144 780.87,-109.62 769.23,-70.58 761.41,-45.41"/>
<polygon fill="black" stroke="black" points="764.74,-44.34 758.41,-35.85 758.06,-46.44 764.74,-44.34"/>
</g>
<!-- E&#45;&gt;X -->
<g id="edge53" class="edge">
<title>E&#45;&gt;X</title>
<path fill="none" stroke="black" d="M811.43,-288.71C800.05,-264.23 778.44,-217.74 764.93,-188.67"/>
<polygon fill="black" stroke="black" points="768.07,-187.13 760.69,-179.54 761.73,-190.08 768.07,-187.13"/>
</g>
<!-- E&#45;&gt;Z -->
<g id="edge22" class="edge">
<title>E&#45;&gt;Z</title>
<path fill="none" stroke="black" d="M824.18,-288.21C835.63,-251.09 863.15,-161.86 876.9,-117.27"/>
<polygon fill="black" stroke="black" points="880.24,-118.3 879.85,-107.71 873.55,-116.24 880.24,-118.3"/>
</g>
<!-- E&#45;&gt;F -->
<g id="edge26" class="edge">
<title>E&#45;&gt;F</title>
<path fill="none" stroke="black" d="M839.47,-294.06C861.29,-282.4 896.04,-263.83 920.75,-250.63"/>
<polygon fill="black" stroke="black" points="922.5,-253.66 929.67,-245.86 919.21,-247.49 922.5,-253.66"/>
</g>
<!-- Z&#45;&gt;I -->
<g id="edge25" class="edge">
<title>Z&#45;&gt;I</title>
<path fill="none" stroke="black" d="M864.38,-78.06C842.39,-66.4 807.37,-47.83 782.48,-34.63"/>
<polygon fill="black" stroke="black" points="783.95,-31.45 773.48,-29.86 780.68,-37.64 783.95,-31.45"/>
</g>
<!-- F&#45;&gt;I -->
<g id="edge23" class="edge">
<title>F&#45;&gt;I</title>
<path fill="none" stroke="black" d="M952.18,-216.02C955.31,-183.76 957.21,-113.15 921,-72 888.03,-34.54 828.85,-23.3 790.25,-20.08"/>
<polygon fill="black" stroke="black" points="790.17,-16.56 779.95,-19.36 789.69,-23.55 790.17,-16.56"/>
</g>
<!-- F&#45;&gt;X -->
<g id="edge36" class="edge">
<title>F&#45;&gt;X</title>
<path fill="none" stroke="black" d="M926.63,-224.7C891.68,-212.28 825.65,-188.81 785.86,-174.68"/>
<polygon fill="black" stroke="black" points="786.94,-171.34 776.34,-171.29 784.59,-177.94 786.94,-171.34"/>
</g>
<!-- F&#45;&gt;Z -->
<g id="edge81" class="edge">
<title>F&#45;&gt;Z</title>
<path fill="none" stroke="black" d="M942.42,-216.43C931.16,-191.85 909.95,-145.51 896.7,-116.56"/>
<polygon fill="black" stroke="black" points="899.88,-115.1 892.54,-107.46 893.51,-118.01 899.88,-115.1"/>
</g>
</g>
</svg>
